<svg xmlns="http://www.w3.org/2000/svg" xmlns:xlink="http://www.w3.org/1999/xlink" width="150" height="33" viewBox="0 0 150 33"><defs><path id="a" d="M0 32.883h149.915V.585H0z"/></defs><g fill="none" fill-rule="evenodd"><path fill="#1D1D1B" d="M116.897 32.883H150V0h-33.103v32.883zm3.5-29.406H146.5v25.928h-26.101V3.477zM0 29.772v3.111h111.724v-3.111zM0 2.055v3.464h5.358v17.088h3.683V5.519h5.442V2.055zm20.098 8.565c2.675 0 3.13 2.255 3.187 2.96h-6.66c.115-.564.655-2.96 3.473-2.96zm4.03 7.066c-.359.477-1.298 1.87-3.603 1.87-3.301 0-3.956-2.791-4.013-3.496h10.53c0-3.833-1.565-8.145-7.001-8.145-3.7 0-7.143 2.339-7.143 7.384 0 4.679 3.073 7.554 7.314 7.554 3.618 0 5.449-1.937 6.608-3.442l-2.693-1.725zm66.3-9.772c-.568 0-3.101.17-4.382 2.087V8.338h-3.443V22.43h3.443v-6.116c0-2.424.313-3.608 1.337-4.453a2.723 2.723 0 0 1 1.794-.649c2.105 0 2.503 1.748 2.503 3.298v7.92h3.359v-9.808c0-2.762-1.594-4.708-4.61-4.708M51.25 19.696c-2.305 0-3.586-1.945-3.586-4.397 0-2.34 1.196-4.369 3.5-4.369 1.85 0 2.847 1.184 3.245 2.396l3.045-1.41c-.54-1.324-2.419-4.001-6.119-4.001-4.695 0-7.2 3.805-7.2 7.469 0 4.2 2.846 7.469 7.03 7.469 2.846 0 5.435-1.607 6.431-4.397l-2.902-1.522c-.257.676-1.025 2.762-3.444 2.762"/><mask id="b" fill="#fff"><use xlink:href="#a"/></mask><path fill="#1D1D1B" mask="url(#b)" d="M76.011 6.139h3.387V2.728h-3.387zm28.593 12.401c-2.276 0-3.529-1.522-3.529-3.72 0-2.734 1.765-3.89 3.5-3.89 2.363 0 3.53 1.804 3.53 4.002 0 2.171-1.281 3.609-3.5 3.609zm3.415-10.202V9.83c-.797-1.156-2.191-1.917-4.012-1.917-3.045 0-6.432 2.058-6.432 6.99 0 4.82 3.159 6.708 6.147 6.708.711 0 2.704-.084 4.297-1.493v1.24c0 2.424-1.366 3.129-3.386 3.129-.797 0-2.533-.283-2.846-1.748H98.03c.399 1.889 1.224 4.623 6.517 4.623 4.041 0 6.859-1.55 6.859-5.637V8.338h-3.387zM76.011 22.43h3.387V8.338h-3.387zM67.85 7.914a6.29 6.29 0 0 0-4.496 1.86V2.532h-3.415v19.9h3.415v-7.808c0-2.114 1.707-3.495 3.557-3.495 1.65 0 2.675.986 2.675 3.043v8.26h3.358v-9.528c0-3.24-1.992-4.989-5.094-4.989M38.348 17.3c-.023 1.77-1.935 2.565-3.5 2.565-1.707 0-2.334-.79-2.334-1.72 0-1.408 1.624-1.65 3.167-1.994 1.316-.293 2.673-.615 2.673-.615s.005.965-.006 1.764M35.92 7.915c-5.976 0-6.175 3.607-6.232 4.537l3.472.198c0-.733.285-2.114 2.793-2.114 1.84 0 2.401.844 2.401 2.34-1.194.238-2.333.461-4.255.817-2.704.479-5.066 1.69-5.066 4.763 0 2.367 1.935 4.312 5.18 4.312 1.735 0 3.196-.704 4.135-1.437v1.099h3.548V11.917c0-2.5-1.793-4.002-5.976-4.002"/><path fill="#009964" d="M140.297 9.248L129.26 19.907l-3.694-3.566-2.463 2.377 6.157 5.944 13.499-13.037z"/></g></svg>